<svg width="20" height="20" viewBox="0 0 20 20" fill="none" xmlns="http://www.w3.org/2000/svg">
<path d="M10.1667 9.83352L8.99164 11.0085C8.34164 11.6585 8.34164 12.7169 8.99164 13.3669C9.64164 14.0169 10.7 14.0169 11.35 13.3669L13.2 11.5169C14.5 10.2169 14.5 8.10853 13.2 6.8002C11.9 5.5002 9.79165 5.5002 8.48332 6.8002L6.46667 8.81685C5.35 9.93351 5.35 11.7419 6.46667 12.8585" stroke="#44444F" stroke-width="1.5" stroke-linecap="round" stroke-linejoin="round"/>
<path d="M7.5 18.3332H12.5C16.6667 18.3332 18.3333 16.6665 18.3333 12.4998V7.49984C18.3333 3.33317 16.6667 1.6665 12.5 1.6665H7.5C3.33334 1.6665 1.66667 3.33317 1.66667 7.49984V12.4998C1.66667 16.6665 3.33334 18.3332 7.5 18.3332Z" stroke="#44444F" stroke-width="1.5" stroke-linecap="round" stroke-linejoin="round"/>
</svg>
