<svg width="20" height="20" viewBox="0 0 20 20" fill="none" xmlns="http://www.w3.org/2000/svg">
<path fill-rule="evenodd" clip-rule="evenodd" d="M14.5333 5.197C14.5667 5.25527 14.625 5.29689 14.7 5.29689C16.7 5.29689 18.3333 6.92841 18.3333 8.92619V13.8707C18.3333 15.8685 16.7 17.5 14.7 17.5H5.3C3.29167 17.5 1.66667 15.8685 1.66667 13.8707V8.92619C1.66667 6.92841 3.29167 5.29689 5.3 5.29689C5.36667 5.29689 5.43333 5.2636 5.45833 5.197L5.50833 5.09711C5.53706 5.03665 5.56654 4.97455 5.59648 4.9115C5.80966 4.46246 6.04552 3.96567 6.19167 3.6737C6.575 2.92453 7.225 2.50832 8.03333 2.5H11.9583C12.7667 2.50832 13.425 2.92453 13.8083 3.6737C13.9396 3.93592 14.1396 4.35833 14.3323 4.76545C14.3721 4.84942 14.4115 4.93274 14.45 5.01387L14.5333 5.197ZM13.925 8.39345C13.925 8.80966 14.2583 9.14262 14.675 9.14262C15.0917 9.14262 15.4333 8.80966 15.4333 8.39345C15.4333 7.97725 15.0917 7.63596 14.675 7.63596C14.2583 7.63596 13.925 7.97725 13.925 8.39345ZM8.55833 9.68368C8.95 9.29245 9.45833 9.08435 10 9.08435C10.5417 9.08435 11.05 9.29245 11.4333 9.67536C11.8167 10.0583 12.025 10.566 12.025 11.1071C12.0167 12.2225 11.1167 13.1299 10 13.1299C9.45833 13.1299 8.95 12.9218 8.56667 12.5388C8.18333 12.1559 7.975 11.6482 7.975 11.1071V11.0988C7.96667 10.5744 8.175 10.0666 8.55833 9.68368ZM12.3083 13.4212C11.7167 14.0122 10.9 14.3785 10 14.3785C9.125 14.3785 8.30833 14.0372 7.68333 13.4212C7.06667 12.7969 6.725 11.9811 6.725 11.1071C6.71667 10.2414 7.05833 9.42564 7.675 8.80133C8.3 8.17703 9.125 7.83574 10 7.83574C10.875 7.83574 11.7 8.17703 12.3167 8.79301C12.9333 9.41731 13.275 10.2414 13.275 11.1071C13.2667 12.0144 12.9 12.8302 12.3083 13.4212Z" fill="#3B76AC"/>
</svg>
