<svg width="14" height="14" viewBox="0 0 14 14" fill="none" xmlns="http://www.w3.org/2000/svg">
<path d="M8.10912 7.00027L13.4369 1.67249C13.7436 1.36583 13.7436 0.870156 13.4369 0.563493C13.1302 0.25683 12.6346 0.25683 12.3279 0.563493L7.00013 5.89127L1.67232 0.563493C1.36566 0.25683 0.869989 0.25683 0.563326 0.563493C0.256662 0.870156 0.256662 1.36583 0.563326 1.67249L5.8911 7.00027L0.563326 12.328C0.256662 12.6347 0.256662 13.1304 0.563326 13.437C0.716266 13.59 0.917045 13.6668 1.11782 13.6668C1.3186 13.6668 1.51938 13.59 1.67232 13.437L7.0001 8.10926L12.3279 13.437C12.4808 13.59 12.6816 13.6668 12.8824 13.6668C13.0832 13.6668 13.2839 13.59 13.4369 13.437C13.7435 13.1304 13.7435 12.6347 13.4369 12.328L8.10912 7.00027Z" fill="#171725"/>
</svg>
