<svg width="40" height="40" viewBox="0 0 40 40" fill="none" xmlns="http://www.w3.org/2000/svg">
<path fill-rule="evenodd" clip-rule="evenodd" d="M24.1288 7.40348L36.2434 28.4287C36.51 29.0563 36.6266 29.5666 36.66 30.0967C36.7266 31.3353 36.2934 32.5393 35.4435 33.4658C34.5937 34.3889 33.4439 34.9339 32.1941 35H7.79817C7.28159 34.9686 6.76501 34.8514 6.28176 34.6697C3.8655 33.6953 2.69903 30.9538 3.6822 28.5773L15.8801 7.38862C16.2967 6.6438 16.93 6.00136 17.7132 5.58849C19.9795 4.3317 22.8623 5.15745 24.1288 7.40348ZM21.4459 21.2595C21.4459 22.0523 20.796 22.7145 19.9961 22.7145C19.1963 22.7145 18.5297 22.0523 18.5297 21.2595V16.5875C18.5297 15.7931 19.1963 15.1507 19.9961 15.1507C20.796 15.1507 21.4459 15.7931 21.4459 16.5875V21.2595ZM19.9961 28.3626C19.1963 28.3626 18.5297 27.7004 18.5297 26.9093C18.5297 26.1149 19.1963 25.4543 19.9961 25.4543C20.796 25.4543 21.4459 26.1001 21.4459 26.8911C21.4459 27.7004 20.796 28.3626 19.9961 28.3626Z" fill="#FF7F1D"/>
</svg>
