<svg width="24" height="24" viewBox="0 0 24 24" fill="none" xmlns="http://www.w3.org/2000/svg">
<g clip-path="url(#clip0_397_4191)">
<path d="M15.875 2H6.29167C5.025 2 4 3.025 4 4.29167V17.2083C4 18.475 5.025 19.5 6.29167 19.5H12.4417L12.625 18.475C12.7083 18.0083 12.925 17.5917 13.2583 17.25L18.1667 12.35V4.29167C18.1667 3.025 17.1417 2 15.875 2ZM7.33333 5.33333H10.6667C11.125 5.33333 11.5 5.70833 11.5 6.16667C11.5 6.625 11.125 7 10.6667 7H7.33333C6.875 7 6.5 6.625 6.5 6.16667C6.5 5.70833 6.875 5.33333 7.33333 5.33333ZM11.5 13.6667H7.33333C6.875 13.6667 6.5 13.2917 6.5 12.8333C6.5 12.375 6.875 12 7.33333 12H11.5C11.9583 12 12.3333 12.375 12.3333 12.8333C12.3333 13.2917 11.9583 13.6667 11.5 13.6667ZM14.8333 10.3333H7.33333C6.875 10.3333 6.5 9.95833 6.5 9.5C6.5 9.04167 6.875 8.66667 7.33333 8.66667H14.8333C15.2917 8.66667 15.6667 9.04167 15.6667 9.5C15.6667 9.95833 15.2917 10.3333 14.8333 10.3333Z" fill="#3B76AC"/>
<path d="M14.44 22.0001C14.2758 22.0001 14.1158 21.9351 13.9983 21.8168C13.8542 21.6726 13.7892 21.4676 13.825 21.2659L14.2667 18.7618C14.2883 18.6359 14.35 18.5193 14.44 18.4284L20.6275 12.2418C21.3875 11.4801 22.1342 11.6859 22.5425 12.0943L23.5733 13.1251C24.1425 13.6934 24.1425 14.6184 23.5733 15.1876L17.3858 21.3751C17.2958 21.4659 17.1792 21.5268 17.0525 21.5484L14.5483 21.9901C14.5125 21.9968 14.4758 22.0001 14.44 22.0001ZM16.9442 20.9334H16.9525H16.9442Z" fill="#3B76AC"/>
</g>
<defs>
<clipPath id="clip0_397_4191">
<rect width="20" height="20" fill="white" transform="translate(4 2)"/>
</clipPath>
</defs>
</svg>
