<svg width="20" height="20" viewBox="0 0 20 20" fill="none" xmlns="http://www.w3.org/2000/svg">
<path fill-rule="evenodd" clip-rule="evenodd" d="M8.134 13.0142C7.974 13.0142 7.814 12.9534 7.69233 12.8309C7.07733 12.2167 6.73817 11.4001 6.73817 10.5317C6.73817 8.73174 8.2015 7.26758 9.99983 7.26758C10.8648 7.26758 11.7048 7.61674 12.304 8.22591C12.5457 8.47258 12.5432 8.86758 12.2965 9.10924C12.0507 9.35258 11.6557 9.34841 11.4132 9.10341C11.0473 8.73091 10.5323 8.51758 9.99983 8.51758C8.89067 8.51758 7.98817 9.42091 7.98817 10.5317C7.98817 11.0659 8.19733 11.5692 8.57567 11.9476C8.81983 12.1917 8.81983 12.5867 8.5765 12.8309C8.454 12.9534 8.294 13.0142 8.134 13.0142Z" fill="#92929D"/>
<path fill-rule="evenodd" clip-rule="evenodd" d="M10.4728 13.7426C10.177 13.7426 9.91366 13.5309 9.85866 13.2293C9.79699 12.8901 10.022 12.5643 10.362 12.5026C11.1787 12.3543 11.8253 11.7059 11.972 10.8884C12.0337 10.5493 12.3587 10.3259 12.6978 10.3843C13.0378 10.4451 13.2637 10.7701 13.2028 11.1101C12.9637 12.4376 11.912 13.4909 10.5853 13.7326C10.5478 13.7393 10.5095 13.7426 10.4728 13.7426Z" fill="#92929D"/>
<mask id="mask0_375_4444" style="mask-type:luminance" maskUnits="userSpaceOnUse" x="1" y="3" width="15" height="13">
<path fill-rule="evenodd" clip-rule="evenodd" d="M1.66666 3.85352H15.0719V15.602H1.66666V3.85352Z" fill="white"/>
</mask>
<g mask="url(#mask0_375_4444)">
<path fill-rule="evenodd" clip-rule="evenodd" d="M5.54533 15.602C5.41033 15.602 5.2745 15.5578 5.1595 15.4686C3.75033 14.362 2.5595 12.7395 1.71783 10.7778C1.6495 10.6195 1.6495 10.4411 1.71783 10.2836C2.56866 8.31362 3.767 6.68279 5.18366 5.56862C8.072 3.28279 11.917 3.27529 14.8345 5.58529C15.1053 5.79946 15.1512 6.19279 14.937 6.46362C14.722 6.73279 14.3303 6.78029 14.0587 6.56529C11.587 4.60862 8.40283 4.61529 5.95783 6.55029C4.76116 7.49196 3.73366 8.86362 2.97533 10.532C3.72616 12.1903 4.7445 13.5536 5.932 14.4853C6.20366 14.6986 6.25033 15.092 6.037 15.3628C5.91366 15.5195 5.73033 15.602 5.54533 15.602Z" fill="#92929D"/>
</g>
<mask id="mask1_375_4444" style="mask-type:luminance" maskUnits="userSpaceOnUse" x="7" y="7" width="12" height="11">
<path fill-rule="evenodd" clip-rule="evenodd" d="M7.26456 7.28418H18.3333V17.241H7.26456V7.28418Z" fill="white"/>
</mask>
<g mask="url(#mask1_375_4444)">
<path fill-rule="evenodd" clip-rule="evenodd" d="M10.0001 17.241C9.21925 17.241 8.44258 17.1144 7.69258 16.8652C7.36508 16.756 7.18758 16.4019 7.29675 16.0744C7.40592 15.746 7.75842 15.5719 8.08758 15.6785C8.71008 15.886 9.35342 15.991 10.0001 15.991C12.8568 15.991 15.4676 13.956 17.0251 10.5302C16.6451 9.69768 16.2026 8.94352 15.7076 8.28518C15.5001 8.00935 15.5551 7.61685 15.8309 7.40935C16.1059 7.20185 16.4984 7.25852 16.7059 7.53352C17.3093 8.33435 17.8393 9.26018 18.2818 10.2819C18.3509 10.4402 18.3509 10.6202 18.2818 10.7777C16.5351 14.8252 13.4393 17.241 10.0001 17.241Z" fill="#92929D"/>
</g>
<mask id="mask2_375_4444" style="mask-type:luminance" maskUnits="userSpaceOnUse" x="2" y="3" width="16" height="15">
<path fill-rule="evenodd" clip-rule="evenodd" d="M2.80296 3.3335H17.1975V17.7277H2.80296V3.3335Z" fill="white"/>
</mask>
<g mask="url(#mask2_375_4444)">
<path fill-rule="evenodd" clip-rule="evenodd" d="M3.42775 17.7278C3.26775 17.7278 3.10775 17.667 2.98608 17.5445C2.74191 17.3003 2.74191 16.9053 2.98608 16.6611L16.1311 3.51613C16.3752 3.27197 16.7702 3.27197 17.0144 3.51613C17.2586 3.7603 17.2586 4.15613 17.0144 4.4003L3.86941 17.5445C3.74775 17.667 3.58775 17.7278 3.42775 17.7278Z" fill="#92929D"/>
</g>
</svg>
