<svg width="20" height="20" viewBox="0 0 20 20" fill="none" xmlns="http://www.w3.org/2000/svg">
<path fill-rule="evenodd" clip-rule="evenodd" d="M9.99968 8.03418C8.89134 8.03418 7.99051 8.93585 7.99051 10.0442C7.99051 11.1517 8.89134 12.0525 9.99968 12.0525C11.108 12.0525 12.0097 11.1517 12.0097 10.0442C12.0097 8.93585 11.108 8.03418 9.99968 8.03418ZM9.99968 13.3025C8.20218 13.3025 6.74051 11.8408 6.74051 10.0442C6.74051 8.24668 8.20218 6.78418 9.99968 6.78418C11.7972 6.78418 13.2597 8.24668 13.2597 10.0442C13.2597 11.8408 11.7972 13.3025 9.99968 13.3025Z" fill="#92929D"/>
<mask id="mask0_375_4421" style="mask-type:luminance" maskUnits="userSpaceOnUse" x="1" y="3" width="18" height="14">
<path fill-rule="evenodd" clip-rule="evenodd" d="M1.66679 3.3335H18.3333V16.7543H1.66679V3.3335Z" fill="white"/>
</mask>
<g mask="url(#mask0_375_4421)">
<path fill-rule="evenodd" clip-rule="evenodd" d="M2.97492 10.0436C4.52492 13.4678 7.13575 15.5036 9.99992 15.5045C12.8641 15.5036 15.4749 13.4678 17.0249 10.0436C15.4749 6.6203 12.8641 4.58447 9.99992 4.58363C7.13659 4.58447 4.52492 6.6203 2.97492 10.0436ZM10.0016 16.7545H9.99825H9.99742C6.55075 16.752 3.45575 14.3361 1.71742 10.2903C1.64992 10.1328 1.64992 9.95447 1.71742 9.79697C3.45575 5.75197 6.55159 3.33613 9.99742 3.33363C9.99909 3.3328 9.99909 3.3328 9.99992 3.33363C10.0016 3.3328 10.0016 3.3328 10.0024 3.33363C13.4491 3.33613 16.5441 5.75197 18.2824 9.79697C18.3508 9.95447 18.3508 10.1328 18.2824 10.2903C16.5449 14.3361 13.4491 16.752 10.0024 16.7545H10.0016Z" fill="#92929D"/>
</g>
</svg>
