<svg width="24" height="24" viewBox="0 0 24 24" fill="none" xmlns="http://www.w3.org/2000/svg">
<mask id="mask0_225_3224" style="mask-type:luminance" maskUnits="userSpaceOnUse" x="2" y="2" width="20" height="20">
<path fill-rule="evenodd" clip-rule="evenodd" d="M2.0004 2H21.5V21.5007H2.0004V2Z" fill="white"/>
</mask>
<g mask="url(#mask0_225_3224)">
<path fill-rule="evenodd" clip-rule="evenodd" d="M8.7734 11.5985C8.7914 11.6145 8.8084 11.6295 8.8254 11.6475C9.9044 12.7535 10.4994 14.2185 10.4994 15.7735V19.7575L12.7354 18.5395C12.9114 18.4435 13.0204 18.2555 13.0204 18.0485V15.7615C13.0204 14.2125 13.6094 12.7525 14.6784 11.6525L19.5154 6.50751C19.8284 6.17451 20.0004 5.73751 20.0004 5.27651V4.34051C20.0004 3.87651 19.6344 3.49951 19.1864 3.49951H4.3154C3.8664 3.49951 3.5004 3.87651 3.5004 4.34051V5.27651C3.5004 5.73751 3.6724 6.17451 3.9854 6.50651L8.7734 11.5985ZM10.1464 21.5005C9.9444 21.5005 9.7444 21.4465 9.5624 21.3385C9.2104 21.1285 8.9994 20.7575 8.9994 20.3455V15.7735C8.9994 14.6385 8.5764 13.5695 7.8054 12.7505C7.7824 12.7315 7.7594 12.7105 7.7394 12.6885L2.8934 7.53551C2.3174 6.92351 2.0004 6.12051 2.0004 5.27651V4.34051C2.0004 3.04951 3.0394 1.99951 4.3154 1.99951H19.1864C20.4614 1.99951 21.5004 3.04951 21.5004 4.34051V5.27651C21.5004 6.11951 21.1834 6.92151 20.6094 7.53451L15.7624 12.6885C14.9594 13.5165 14.5204 14.6055 14.5204 15.7615V18.0485C14.5204 18.8045 14.1114 19.4965 13.4534 19.8565L10.6924 21.3605C10.5204 21.4535 10.3334 21.5005 10.1464 21.5005Z" fill="#0A2745"/>
</g>
</svg>
