<svg width="40" height="40" viewBox="0 0 40 40" fill="none" xmlns="http://www.w3.org/2000/svg">
<g clip-path="url(#clip0_3569_10582)">
<path d="M35.0646 34.7224L35.0752 34.7326L34.4841 35.2167C30.707 38.3016 25.8883 40 20.9131 40C9.38308 40 0 31.0266 0 20C0 8.97338 9.38308 0 20.9131 0C25.8883 0 30.707 1.69835 34.4841 4.78327L35.0752 5.26743L35.0434 5.30291C32.581 4.03295 29.7634 3.31559 26.7736 3.31559C17.2315 3.31559 9.47585 10.6312 9.30886 19.7161C9.30621 19.8175 9.30621 19.9163 9.30621 20.0177C9.30621 29.2446 17.1254 36.7224 26.7736 36.7224C29.774 36.7224 32.5969 35.9975 35.0646 34.7224Z" fill="url(#paint0_linear_3569_10582)"/>
<path d="M35.0646 34.7224C32.5969 35.9974 29.774 36.7224 26.7736 36.7224C17.1254 36.7224 9.30621 29.2446 9.30621 20.0177C9.30621 19.9163 9.30621 19.8149 9.30886 19.7161H9.33007C9.33007 19.8099 9.32742 19.9087 9.32742 20.0025C9.32742 26.114 14.5252 31.0849 20.9158 31.0849C23.6724 31.0849 26.3389 30.1445 28.4275 28.4385L29.0186 27.9543L35.0673 34.7249L35.0646 34.7224Z" fill="url(#paint1_linear_3569_10582)"/>
<path d="M35.0434 5.30041L29.016 12.0457L28.4249 11.5615C26.3362 9.85554 23.6697 8.91511 20.9131 8.91511C14.6233 8.91511 9.48909 13.7313 9.33006 19.7111H9.30885C9.47584 10.6261 17.2315 3.31055 26.7736 3.31055C29.7661 3.31055 32.5837 4.03045 35.0434 5.29787V5.30041Z" fill="url(#paint2_linear_3569_10582)"/>
<path d="M36.2873 23.2C38.0546 23.2 39.4873 21.7673 39.4873 20C39.4873 18.2327 38.0546 16.8 36.2873 16.8C34.52 16.8 33.0873 18.2327 33.0873 20C33.0873 21.7673 34.52 23.2 36.2873 23.2Z" fill="url(#paint3_linear_3569_10582)"/>
</g>
<defs>
<linearGradient id="paint0_linear_3569_10582" x1="0" y1="20" x2="35.0752" y2="20" gradientUnits="userSpaceOnUse">
<stop stop-color="#3B76AC"/>
<stop offset="1" stop-color="#9DC2E0"/>
</linearGradient>
<linearGradient id="paint1_linear_3569_10582" x1="9.30356" y1="28.218" x2="35.0646" y2="28.218" gradientUnits="userSpaceOnUse">
<stop stop-color="#FCB71E"/>
<stop offset="1" stop-color="#FFD59D"/>
</linearGradient>
<linearGradient id="paint2_linear_3569_10582" x1="9.30885" y1="11.5133" x2="35.0434" y2="11.5133" gradientUnits="userSpaceOnUse">
<stop stop-color="#FCB71E"/>
<stop offset="1" stop-color="#FFD59D"/>
</linearGradient>
<linearGradient id="paint3_linear_3569_10582" x1="33.0873" y1="20" x2="39.4873" y2="20" gradientUnits="userSpaceOnUse">
<stop stop-color="#FFBF53"/>
<stop offset="1" stop-color="#FF6F42"/>
</linearGradient>
<clipPath id="clip0_3569_10582">
<rect width="40" height="40" fill="white"/>
</clipPath>
</defs>
</svg>
