<svg width="24" height="24" viewBox="0 0 24 24" fill="none" xmlns="http://www.w3.org/2000/svg">
<path d="M12 22C17.5228 22 22 17.5228 22 12C22 6.4771 17.5228 2 12 2C6.47721 2 1.99997 6.47717 1.99997 12C1.99997 17.5229 6.47714 22 12 22ZM12 3.59998C16.6316 3.59998 20.4 7.36835 20.4 12C20.4 16.6316 16.6316 20.3999 12 20.3999C7.3684 20.3999 3.60003 16.6316 3.60003 12C3.60003 7.36835 7.36796 3.59998 12 3.59998Z" fill="#171725"/>
<path d="M10.1416 16.7167C10.694 16.7167 11.1416 16.2692 11.1416 15.7167V8.11673C11.1416 7.56435 10.694 7.1167 10.1416 7.1167C9.58922 7.1167 9.14157 7.56428 9.14157 8.11673V15.7167C9.14157 16.2692 9.58915 16.7167 10.1416 16.7167ZM14.1416 16.7167C14.6939 16.7167 15.1416 16.2692 15.1416 15.7167V8.11673C15.1416 7.56435 14.694 7.1167 14.1416 7.1167C13.5891 7.1167 13.1416 7.56435 13.1416 8.11673V15.7167C13.1416 16.2692 13.5892 16.7167 14.1416 16.7167Z" fill="#171725"/>
</svg>
