<svg width="24" height="24" viewBox="0 0 24 24" fill="none" xmlns="http://www.w3.org/2000/svg">
<path fill-rule="evenodd" clip-rule="evenodd" d="M12.25 3.5C7.425 3.5 3.5 7.425 3.5 12.25C3.5 17.075 7.425 21 12.25 21C17.075 21 21 17.075 21 12.25C21 7.425 17.075 3.5 12.25 3.5ZM12.25 22.5C6.598 22.5 2 17.902 2 12.25C2 6.598 6.598 2 12.25 2C17.902 2 22.5 6.598 22.5 12.25C22.5 17.902 17.902 22.5 12.25 22.5Z" fill="#171725"/>
<path fill-rule="evenodd" clip-rule="evenodd" d="M11.1338 10.0865C10.9568 11.0875 10.9538 13.4785 11.1308 14.4285C12.0088 14.1185 13.9108 12.8685 14.4228 12.2495C13.9128 11.6485 12.0348 10.4245 11.1338 10.0865ZM10.8278 16.0015C10.5578 16.0015 10.3018 15.9245 10.0928 15.7165C9.9318 15.5575 9.5018 15.1325 9.4998 12.3335C9.4988 9.36151 9.9458 8.91951 10.0928 8.77251C10.6158 8.25451 11.4678 8.60951 11.8308 8.76151C12.3508 8.97851 15.9998 10.8475 15.9998 12.2455C15.9998 13.5555 12.7158 15.3875 11.8768 15.7375C11.5498 15.8735 11.1768 16.0015 10.8278 16.0015Z" fill="#171725"/>
</svg>
