<svg width="40" height="40" viewBox="0 0 40 40" fill="none" xmlns="http://www.w3.org/2000/svg">
<path fill-rule="evenodd" clip-rule="evenodd" d="M12.7835 3.33325H27.2335C32.8835 3.33325 36.6668 7.29992 36.6668 13.1999V26.8183C36.6668 32.6999 32.8835 36.6666 27.2335 36.6666H12.7835C7.1335 36.6666 3.3335 32.6999 3.3335 26.8183V13.1999C3.3335 7.29992 7.1335 3.33325 12.7835 3.33325ZM19.0502 24.9833L26.9668 17.0666C27.5335 16.4999 27.5335 15.5833 26.9668 14.9999C26.4002 14.4333 25.4668 14.4333 24.9002 14.9999L18.0168 21.8833L15.1002 18.9666C14.5335 18.3999 13.6002 18.3999 13.0335 18.9666C12.4668 19.5333 12.4668 20.4499 13.0335 21.0333L17.0002 24.9833C17.2835 25.2666 17.6502 25.3999 18.0168 25.3999C18.4002 25.3999 18.7668 25.2666 19.0502 24.9833Z" fill="#6FA832"/>
</svg>
